<svg width="1189" height="361" viewBox="0 0 1189 361" fill="none" xmlns="http://www.w3.org/2000/svg">
<g filter="url(#filter0_dd_274_700)">
<path d="M594.5 340C914.326 340 1174 265.839 1174 174.5C1174 83.1606 914.326 9 594.5 9C274.674 9 15 83.1606 15 174.5C15 265.839 274.674 340 594.5 340Z" fill="#000"/>
<path d="M594.5 340C914.326 340 1174 265.839 1174 174.5C1174 83.1606 914.326 9 594.5 9C274.674 9 15 83.1606 15 174.5C15 265.839 274.674 340 594.5 340Z" stroke="url(#paint0_linear_274_700)"/>
</g>
<defs>
<filter id="filter0_dd_274_700" x="0.5" y="0.5" width="1188" height="360" filterUnits="userSpaceOnUse" color-interpolation-filters="sRGB">
<feFlood flood-opacity="0" result="BackgroundImageFix"/>
<feColorMatrix in="SourceAlpha" type="matrix" values="0 0 0 0 0 0 0 0 0 0 0 0 0 0 0 0 0 0 127 0" result="hardAlpha"/>
<feOffset dy="2"/>
<feGaussianBlur stdDeviation="1.5"/>
<feColorMatrix type="matrix" values="0 0 0 0 0 0 0 0 0 0 0 0 0 0 0 0 0 0 0.3 0"/>
<feBlend mode="normal" in2="BackgroundImageFix" result="effect1_dropShadow_274_700"/>
<feColorMatrix in="SourceAlpha" type="matrix" values="0 0 0 0 0 0 0 0 0 0 0 0 0 0 0 0 0 0 127 0" result="hardAlpha"/>
<feMorphology radius="4" operator="dilate" in="SourceAlpha" result="effect2_dropShadow_274_700"/>
<feOffset dy="6"/>
<feGaussianBlur stdDeviation="5"/>
<feColorMatrix type="matrix" values="0 0 0 0 0 0 0 0 0 0 0 0 0 0 0 0 0 0 0.15 0"/>
<feBlend mode="normal" in2="effect1_dropShadow_274_700" result="effect2_dropShadow_274_700"/>
<feBlend mode="normal" in="SourceGraphic" in2="effect2_dropShadow_274_700" result="shape"/>
</filter>
<linearGradient id="paint0_linear_274_700" x1="15" y1="340" x2="-3.52071" y2="-42.9603" gradientUnits="userSpaceOnUse">
<stop stop-color="#D91C5E"/>
<stop offset="1"/>
</linearGradient>
</defs>
</svg>
